<?xml version="1.0" encoding="UTF-8" standalone="no"?>
<!-- Created with Inkscape (http://www.inkscape.org/) -->

<svg
   xmlns:dc="http://purl.org/dc/elements/1.1/"
   xmlns:cc="http://creativecommons.org/ns#"
   xmlns:rdf="http://www.w3.org/1999/02/22-rdf-syntax-ns#"
   xmlns:svg="http://www.w3.org/2000/svg"
   xmlns="http://www.w3.org/2000/svg"
   xmlns:xlink="http://www.w3.org/1999/xlink"
   xmlns:sodipodi="http://sodipodi.sourceforge.net/DTD/sodipodi-0.dtd"
   xmlns:inkscape="http://www.inkscape.org/namespaces/inkscape"
   width="744.09448819"
   height="1052.3622047"
   id="svg2"
   version="1.1"
   inkscape:version="0.48.3.1 r9886"
   sodipodi:docname="New document 1">
  <defs
     id="defs4" />
  <sodipodi:namedview
     id="base"
     pagecolor="#ffffff"
     bordercolor="#666666"
     borderopacity="1.0"
     inkscape:pageopacity="0.0"
     inkscape:pageshadow="2"
     inkscape:zoom="0.57080078"
     inkscape:cx="266.60046"
     inkscape:cy="567.45561"
     inkscape:document-units="px"
     inkscape:current-layer="layer1"
     showgrid="false"
     inkscape:window-width="1280"
     inkscape:window-height="975"
     inkscape:window-x="0"
     inkscape:window-y="25"
     inkscape:window-maximized="1" />
  <metadata
     id="metadata7">
    <rdf:RDF>
      <cc:Work
         rdf:about="">
        <dc:format>image/svg+xml</dc:format>
        <dc:type
           rdf:resource="http://purl.org/dc/dcmitype/StillImage" />
        <dc:title></dc:title>
      </cc:Work>
    </rdf:RDF>
  </metadata>
  <g
     inkscape:label="Layer 1"
     inkscape:groupmode="layer"
     id="layer1">
    <rect
       style="fill:#ffff00;stroke:none"
       id="rect2989"
       width="179.90889"
       height="155.38194"
       x="5.2774"
       y="48.190468"
       inkscape:tile-cx="146.28574"
       inkscape:tile-cy="93.183409"
       inkscape:tile-w="179.90889"
       inkscape:tile-h="155.38194"
       inkscape:tile-x0="56.331291"
       inkscape:tile-y0="15.492437" />
    <path
       style="opacity:0;fill:#ffff00;stroke:none"
       d="m 3.3052103,166.90553 0,-77.100599 90.2425377,0 90.242532,0 -0.45639,76.646709 -0.4564,76.6467 -89.786138,0.45389 -89.7861417,0.45389 0,-77.10059 z"
       id="path4011"
       inkscape:connector-curvature="0" />
    <path
       style="opacity:0;fill:#ffff00;stroke:none"
       d="m 3.3052103,166.90553 0,-77.100599 90.2425377,0 90.242532,0 -0.45639,76.646709 -0.4564,76.6467 -89.786138,0.45389 -89.7861417,0.45389 0,-77.10059 z"
       id="path4013"
       inkscape:connector-curvature="0" />
    <use
       x="0"
       y="0"
       inkscape:tiled-clone-of="#rect2989"
       xlink:href="#rect2989"
       id="use4025"
       width="744.09448"
       height="1052.3622"
       inkscape:tile-cx="95.231845"
       inkscape:tile-cy="85.881437"
       inkscape:tile-w="179.90889"
       inkscape:tile-h="155.38194"
       inkscape:tile-x0="5.2774"
       inkscape:tile-y0="8.1904659" />
    <use
       x="0"
       y="0"
       inkscape:tiled-clone-of="#rect2989"
       xlink:href="#rect2989"
       transform="translate(185.30616,0)"
       id="use4027"
       width="744.09448"
       height="1052.3622"
       inkscape:tile-cx="280.538"
       inkscape:tile-cy="85.881437"
       inkscape:tile-w="179.90889"
       inkscape:tile-h="155.38194"
       inkscape:tile-x0="190.58356"
       inkscape:tile-y0="8.1904659" />
    <use
       x="0"
       y="0"
       inkscape:tiled-clone-of="#rect2989"
       xlink:href="#rect2989"
       transform="translate(370.61231,0)"
       id="use4029"
       width="744.09448"
       height="1052.3622"
       inkscape:tile-cx="465.84415"
       inkscape:tile-cy="85.881437"
       inkscape:tile-w="179.90889"
       inkscape:tile-h="155.38194"
       inkscape:tile-x0="375.88971"
       inkscape:tile-y0="8.1904659" />
    <use
       x="0"
       y="0"
       inkscape:tiled-clone-of="#rect2989"
       xlink:href="#rect2989"
       transform="translate(555.91847,0)"
       id="use4031"
       width="744.09448"
       height="1052.3622"
       inkscape:tile-cx="651.15031"
       inkscape:tile-cy="85.881437"
       inkscape:tile-w="179.90889"
       inkscape:tile-h="155.38194"
       inkscape:tile-x0="561.19587"
       inkscape:tile-y0="8.1904659" />
    <use
       x="0"
       y="0"
       inkscape:tiled-clone-of="#use4025"
       xlink:href="#use4025"
       id="use4033"
       width="744.09448"
       height="1052.3622" />
    <use
       x="0"
       y="0"
       inkscape:tiled-clone-of="#use4025"
       xlink:href="#use4025"
       transform="translate(0,160.0434)"
       id="use4035"
       width="744.09448"
       height="1052.3622"
       style="fill:#00ffff" />
    <use
       x="0"
       y="0"
       inkscape:tiled-clone-of="#use4025"
       xlink:href="#use4025"
       transform="translate(0,320.0868)"
       id="use4037"
       width="744.09448"
       height="1052.3622"
       style="fill:#000080" />
    <use
       x="0"
       y="0"
       inkscape:tiled-clone-of="#use4027"
       xlink:href="#use4027"
       id="use4045"
       width="744.09448"
       height="1052.3622" />
    <use
       x="0"
       y="0"
       inkscape:tiled-clone-of="#use4027"
       xlink:href="#use4027"
       transform="translate(0,160.0434)"
       id="use4047"
       width="744.09448"
       height="1052.3622"
       style="fill:#00ff00" />
    <use
       x="0"
       y="0"
       inkscape:tiled-clone-of="#use4027"
       xlink:href="#use4027"
       transform="translate(0,320.0868)"
       id="use4049"
       width="744.09448"
       height="1052.3622"
       style="fill:#0000ff" />
    <use
       x="0"
       y="0"
       inkscape:tiled-clone-of="#use4029"
       xlink:href="#use4029"
       id="use4057"
       width="744.09448"
       height="1052.3622"
       style="fill:#0000ff" />
    <use
       x="0"
       y="0"
       inkscape:tiled-clone-of="#use4029"
       xlink:href="#use4029"
       transform="translate(0,160.0434)"
       id="use4059"
       width="744.09448"
       height="1052.3622"
       style="fill:#008080" />
    <use
       x="0"
       y="0"
       inkscape:tiled-clone-of="#use4029"
       xlink:href="#use4029"
       transform="translate(0,320.0868)"
       id="use4061"
       width="744.09448"
       height="1052.3622"
       style="fill:#800080" />
    <use
       x="0"
       y="0"
       inkscape:tiled-clone-of="#use4031"
       xlink:href="#use4031"
       id="use4069"
       width="744.09448"
       height="1052.3622"
       style="fill:#ff00ff" />
    <use
       x="0"
       y="0"
       inkscape:tiled-clone-of="#use4031"
       xlink:href="#use4031"
       transform="translate(0,160.0434)"
       id="use4071"
       width="744.09448"
       height="1052.3622"
       style="fill:#00ffff" />
    <use
       x="0"
       y="0"
       inkscape:tiled-clone-of="#use4031"
       xlink:href="#use4031"
       transform="translate(0,320.0868)"
       id="use4073"
       width="744.09448"
       height="1052.3622"
       style="fill:#ff00ff" />
    <path
       style="fill:#ff0000;fill-opacity:1;stroke:none"
       d="m 191.00923,125.13769 0,-77.084684 89.34816,0 89.34816,0 0,77.084684 0,77.08469 -89.34816,0 -89.34816,0 0,-77.08469 z"
       id="path4081"
       inkscape:connector-curvature="0" />
    <path
       style="fill:#ff0000;fill-opacity:1;stroke:none"
       d="m 5.3052103,126.01366 0,-77.960654 89.3481607,0 89.348159,0 0,77.960654 0,77.96065 -89.348159,0 -89.3481607,0 0,-77.96065 z"
       id="path4085"
       inkscape:connector-curvature="0" />
    <path
       style="fill:#808000;fill-opacity:1;stroke:none"
       d="m 376.71325,125.13769 0,-77.084684 89.34816,0 89.34816,0 0,77.084684 0,77.08469 -89.34816,0 -89.34816,0 0,-77.08469 z"
       id="path4087"
       inkscape:connector-curvature="0" />
    <path
       style="fill:#ffff00;fill-opacity:1;stroke:none"
       d="m 562.41727,125.13769 0,-77.084684 89.34816,0 89.34816,0 0,77.084684 0,77.08469 -89.34816,0 -89.34816,0 0,-77.08469 z"
       id="path4089"
       inkscape:connector-curvature="0" />
    <path
       style="fill:#008000;fill-opacity:1;stroke:none"
       d="m 5.3052103,286.31477 0,-77.08469 89.3481607,0 89.348159,0 0,77.08469 0,77.08469 -89.348159,0 -89.3481607,0 0,-77.08469 z"
       id="path4091"
       inkscape:connector-curvature="0" />
    <path
       style="fill:#800000;fill-opacity:1;stroke:none"
       d="m 5.5948449,126.01366 0,-77.960654 88.4721981,0 88.472197,0 0,77.960654 0,77.96065 -88.472197,0 -88.4721981,0 0,-77.96065 z"
       id="path4095"
       inkscape:connector-curvature="0" />
    <path
       style="fill:#00ff00;fill-opacity:1;stroke:none"
       d="m 191.29887,286.31477 0,-77.08469 89.34816,0 89.34816,0 0,77.08469 0,77.08469 -89.34816,0 -89.34816,0 0,-77.08469 z"
       id="path4097"
       inkscape:connector-curvature="0" />
    <path
       style="fill:#008080;fill-opacity:1;stroke:none"
       d="m 377.00289,286.31477 0,-77.08469 89.34816,0 89.34816,0 0,77.08469 0,77.08469 -89.34816,0 -89.34816,0 0,-77.08469 z"
       id="path4099"
       inkscape:connector-curvature="0" />
    <path
       style="fill:#00ffff;fill-opacity:1;stroke:none"
       d="m 562.70691,286.31477 0,-77.08469 88.47219,0 88.4722,0 0,77.08469 0,77.08469 -88.4722,0 -88.47219,0 0,-77.08469 z"
       id="path4101"
       inkscape:connector-curvature="0" />
    <path
       style="fill:#000080;fill-opacity:1;stroke:none"
       d="m 5.5948449,445.73992 0,-77.08469 89.3481611,0 89.348164,0 0,77.08469 0,77.08469 -89.348164,0 -89.3481611,0 0,-77.08469 z"
       id="path4103"
       inkscape:connector-curvature="0" />
    <path
       style="fill:#0000ff;fill-opacity:1;stroke:none"
       d="m 191.29887,445.73992 0,-77.08469 89.34816,0 89.34816,0 0,77.08469 0,77.08469 -89.34816,0 -89.34816,0 0,-77.08469 z"
       id="path4105"
       inkscape:connector-curvature="0" />
    <path
       style="fill:#800080;fill-opacity:1;stroke:none"
       d="m 377.00289,445.73992 0,-77.08469 89.34816,0 89.34816,0 0,77.08469 0,77.08469 -89.34816,0 -89.34816,0 0,-77.08469 z"
       id="path4107"
       inkscape:connector-curvature="0" />
    <path
       style="fill:#ff00ff;fill-opacity:1;stroke:none"
       d="m 562.70691,445.73992 0,-77.08469 88.47219,0 88.4722,0 0,77.08469 0,77.08469 -88.4722,0 -88.47219,0 0,-77.08469 z"
       id="path4109"
       inkscape:connector-curvature="0" />
  </g>
</svg>
